<svg width="32" height="32" viewBox="0 0 32 32" fill="none" xmlns="http://www.w3.org/2000/svg">
  <!-- Background circle -->
  <circle cx="16" cy="16" r="16" fill="#3b82f6"/>
  
  <!-- Connect 4 grid pattern -->
  <rect x="4" y="8" width="24" height="16" rx="2" fill="white" opacity="0.2"/>
  
  <!-- Grid lines -->
  <line x1="8" y1="8" x2="8" y2="24" stroke="white" stroke-width="1" opacity="0.6"/>
  <line x1="12" y1="8" x2="12" y2="24" stroke="white" stroke-width="1" opacity="0.6"/>
  <line x1="16" y1="8" x2="16" y2="24" stroke="white" stroke-width="1" opacity="0.6"/>
  <line x1="20" y1="8" x2="20" y2="24" stroke="white" stroke-width="1" opacity="0.6"/>
  <line x1="24" y1="8" x2="24" y2="24" stroke="white" stroke-width="1" opacity="0.6"/>
  
  <line x1="4" y1="12" x2="28" y2="12" stroke="white" stroke-width="1" opacity="0.6"/>
  <line x1="4" y1="16" x2="28" y2="16" stroke="white" stroke-width="1" opacity="0.6"/>
  <line x1="4" y1="20" x2="28" y2="20" stroke="white" stroke-width="1" opacity="0.6"/>
  
  <!-- Habit dots (Connect 4 pieces) -->
  <circle cx="10" cy="14" r="2" fill="#10b981"/>
  <circle cx="14" cy="14" r="2" fill="#10b981"/>
  <circle cx="18" cy="14" r="2" fill="#10b981"/>
  <circle cx="22" cy="14" r="2" fill="#10b981"/>
  
  <circle cx="10" cy="18" r="2" fill="#f59e0b"/>
  <circle cx="14" cy="18" r="2" fill="#f59e0b"/>
  <circle cx="18" cy="18" r="2" fill="#f59e0b"/>
  <circle cx="22" cy="18" r="2" fill="#f59e0b"/>
  
  <circle cx="10" cy="22" r="2" fill="#ef4444"/>
  <circle cx="14" cy="22" r="2" fill="#ef4444"/>
  <circle cx="18" cy="22" r="2" fill="#ef4444"/>
  <circle cx="22" cy="22" r="2" fill="#ef4444"/>
</svg>
